<svg width="26" height="26" viewBox="0 0 26 26" fill="none" xmlns="http://www.w3.org/2000/svg">
<g id="ARROW ICON">
<path id="Vector" fill-rule="evenodd" clip-rule="evenodd" d="M6.32105 19.6794C5.98258 19.3409 5.98258 18.7921 6.32105 18.4538L17.8416 6.93319H10.4005C9.92189 6.93319 9.53387 6.54517 9.53387 6.06653C9.53387 5.58788 9.92189 5.19986 10.4005 5.19986H19.9339C20.1637 5.19986 20.3842 5.29117 20.5468 5.45371C20.7092 5.61624 20.8005 5.83667 20.8005 6.06653V15.5999C20.8005 16.0785 20.4124 16.4665 19.9339 16.4665C19.4553 16.4665 19.0672 16.0785 19.0672 15.5999V8.15885L7.54669 19.6794C7.20824 20.0178 6.6595 20.0178 6.32105 19.6794Z" fill="black"/>
</g>
</svg>
